<?xml version="1.0" encoding="UTF-8"?><svg xmlns="http://www.w3.org/2000/svg" xmlns:xlink="http://www.w3.org/1999/xlink" viewBox="0 0 151.67 185.36"><defs><style>.cls-1{fill:url(#linear-gradient-3);}.cls-1,.cls-2,.cls-3,.cls-4{mix-blend-mode:multiply;}.cls-2{fill:url(#linear-gradient-4);}.cls-5{isolation:isolate;}.cls-6{fill:url(#Gradient_22);}.cls-3{fill:url(#linear-gradient-5);}.cls-4{fill:url(#linear-gradient-2);}.cls-7{fill:url(#linear-gradient);}.cls-8{fill:url(#Gradient_22-2);}</style><linearGradient id="linear-gradient" x1="75.83" y1="4.92" x2="75.83" y2="158.51" gradientTransform="matrix(1, 0, 0, 1, 0, 0)" gradientUnits="userSpaceOnUse"><stop offset=".02" stop-color="#00c0ff"/><stop offset="1" stop-color="#4218b8"/></linearGradient><linearGradient id="linear-gradient-2" x1="75.83" y1="-17.16" x2="75.83" y2="61.42" gradientTransform="matrix(1, 0, 0, 1, 0, 0)" gradientUnits="userSpaceOnUse"><stop offset=".25" stop-color="#0d4d9a"/><stop offset=".31" stop-color="#16549e"/><stop offset=".4" stop-color="#3167a9"/><stop offset=".52" stop-color="#5c87bb"/><stop offset=".66" stop-color="#99b4d4"/><stop offset=".82" stop-color="#e4ebf4"/><stop offset=".87" stop-color="#fff"/></linearGradient><linearGradient id="Gradient_22" x1="75.83" y1="61.35" x2="75.83" y2="162.5" gradientTransform="matrix(1, 0, 0, 1, 0, 0)" gradientUnits="userSpaceOnUse"><stop offset="0" stop-color="#9cff87"/><stop offset="1" stop-color="#1fd0e0"/></linearGradient><linearGradient id="linear-gradient-3" x1="75.83" y1="145.8" x2="75.83" y2="171.41" gradientTransform="matrix(1, 0, 0, 1, 0, 0)" gradientUnits="userSpaceOnUse"><stop offset="0" stop-color="#0d4d9a"/><stop offset=".12" stop-color="#3b6fad"/><stop offset=".3" stop-color="#769ac5"/><stop offset=".46" stop-color="#a7beda"/><stop offset=".62" stop-color="#cddaea"/><stop offset=".76" stop-color="#e8eef5"/><stop offset=".89" stop-color="#f9fafc"/><stop offset=".99" stop-color="#fff"/></linearGradient><linearGradient id="Gradient_22-2" x1="75.83" y1="26.51" x2="75.83" y2="148.71" xlink:href="#Gradient_22"/><linearGradient id="linear-gradient-4" x1="148.49" y1="53.5" x2="137.32" y2="80" gradientTransform="matrix(1, 0, 0, 1, 0, 0)" gradientUnits="userSpaceOnUse"><stop offset=".25" stop-color="#0d4d9a"/><stop offset=".32" stop-color="#16549e"/><stop offset=".43" stop-color="#3167a9"/><stop offset=".57" stop-color="#5c87bb"/><stop offset=".74" stop-color="#99b4d4"/><stop offset=".93" stop-color="#e4ebf4"/><stop offset=".99" stop-color="#fff"/></linearGradient><linearGradient id="linear-gradient-5" x1="-109.56" y1="53.5" x2="-120.72" y2="80" gradientTransform="translate(-106.38) rotate(-180) scale(1 -1)" xlink:href="#linear-gradient-4"/></defs><g class="cls-5"><g id="Capa_2"><g id="OBJECTS"><g><path class="cls-7" d="M131.31,51.45C129.61,22.8,105.38,0,75.83,0S22.06,22.8,20.35,51.45C9.03,52.07,0,61.48,0,72.96s9.67,21.55,21.55,21.55h10.24V54.68c0-23.79,19.76-43.15,44.05-43.15s44.05,19.36,44.05,43.15v39.83h10.24c11.88,0,21.55-9.67,21.55-21.55s-9.03-20.89-20.35-21.51ZM20.25,82.89c-4.91-.64-8.72-4.85-8.72-9.93s3.81-9.3,8.72-9.93v19.87Zm111.16,0v-19.87c4.91,.64,8.72,4.85,8.72,9.93s-3.81,9.3-8.72,9.93Z"/><path class="cls-4" d="M130.12,94.51h-10.24V54.68c0-21.25-15.76-38.94-36.43-42.49,25.99,3.52,46.3,24.78,47.86,50.92,.03,0,.07,0,.1,0v31.34c-.43,.03-.86,.04-1.29,.04ZM68.21,12.19c-25.99,3.52-46.3,24.78-47.86,50.92-.03,0-.07,0-.1,0v31.34c.43,.03,.86,.04,1.29,.04h10.24V54.68c0-21.25,15.76-38.94,36.43-42.49Z"/><path class="cls-6" d="M119.88,102.24v2.38c0,23.79-19.76,43.15-44.05,43.15s-44.05-19.36-44.05-43.15v-2.38h-11.53v2.38c0,28.24,21.87,51.54,49.82,54.39v14.82h-3.16c-6.37,0-11.53,5.16-11.53,11.53h40.92c0-6.37-5.16-11.53-11.53-11.53h-3.16v-14.82c27.95-2.85,49.82-26.15,49.82-54.39v-2.38h-11.53Z"/><path class="cls-1" d="M70.07,159.01v26.35h11.53v-26.35s-4.32,.29-5.77,.29-5.77-.29-5.77-.29Z"/><path class="cls-8" d="M93.47,75.4h18.55v-9.85h-18.36c-2.34,0-4.38-1.8-4.44-4.14-.06-2.4,1.86-4.36,4.25-4.36h18.55c0-19.98-16.21-36.17-36.19-36.17h0c-19.98,0-36.18,16.19-36.19,36.17h17.71c2.33,0,4.35,1.79,4.42,4.12,.07,2.41-1.86,4.38-4.25,4.38h-17.89v9.85h17.71c2.33,0,4.35,1.79,4.42,4.12,.07,2.41-1.86,4.38-4.25,4.38h-17.89v9.85h17.71c2.33,0,4.35,1.79,4.42,4.12,.07,2.41-1.86,4.38-4.25,4.38h-17.89c0,19.98,16.21,36.17,36.19,36.17h0c19.98,0,36.18-16.19,36.19-36.17h-18.55c-2.35,0-4.25-1.9-4.25-4.25s1.9-4.25,4.25-4.25h18.55v-9.85h-18.36c-2.34,0-4.38-1.8-4.44-4.14-.06-2.4,1.86-4.36,4.25-4.36Z"/><path class="cls-2" d="M148.92,83.48c2.2-9.99-3.44-20.45-17.5-20.45,4.91,.64,8.72,4.85,8.72,9.93s-3.81,9.3-8.72,9.93v11.57c7.52-.45,14.01-4.77,17.5-10.99Z"/><path class="cls-3" d="M2.75,83.48c-2.2-9.99,3.44-20.45,17.5-20.45-4.91,.64-8.72,4.85-8.72,9.93s3.81,9.3,8.72,9.93v11.57c-7.52-.45-14.01-4.77-17.5-10.99Z"/></g></g></g></g></svg>